<?xml version="1.0" encoding="utf-8"?>
<!-- Generator: Adobe Illustrator 22.0.1, SVG Export Plug-In . SVG Version: 6.00 Build 0)  -->
<svg version="1.1" id="Vrstva_1" xmlns="http://www.w3.org/2000/svg" xmlns:xlink="http://www.w3.org/1999/xlink" x="0px" y="0px"
	 viewBox="0 0 595.3 841.9" style="enable-background:new 0 0 595.3 841.9;" xml:space="preserve">
<style type="text/css">
	.st0{fill:#1EBCEF;}
	.st1{fill:#009AD8;}
	.st2{fill:#327EC1;}
	.st3{fill:#3C9FD9;}
	.st4{fill:#1790D0;}
	.st5{fill:#006AB3;}
	.st6{fill:#2977BC;}
	.st7{fill:#2C60AB;}
	.st8{fill:#1A72B9;}
</style>
<polygon class="st0" points="35.8,272.1 299.9,115.9 168,347.8 "/>
<polygon class="st1" points="429.8,343.8 299.9,115.9 168,347.8 "/>
<polygon class="st2" points="559.5,272.1 429.8,343.8 299.9,115.9 "/>
<polygon class="st3" points="35.8,572.3 35.8,272.1 168,347.8 "/>
<polygon class="st4" points="299.9,572.3 35.8,572.3 168,347.8 "/>
<polygon class="st2" points="429.8,343.8 299.9,572.3 168,347.8 "/>
<polygon class="st5" points="559.5,272.1 559.5,572.3 429.8,343.8 "/>
<polygon class="st6" points="298.9,726.5 35.8,572.3 299.9,572.3 "/>
<polygon class="st7" points="559.5,572.3 298.9,726.5 299.9,572.3 "/>
<polygon class="st8" points="429.8,343.8 559.5,572.3 299.9,572.3 "/>
</svg>
